HIERARCHY
ROOT Hips
{
	OFFSET	0	0	0
	CHANNELS 6  Xposition Yposition Zposition Xrotation Yrotation Zrotation
	JOINT Spine
	{
		OFFSET	0	7.09727	1.42491
		CHANNELS 3  Xrotation Yrotation Zrotation
		JOINT Spine1
		{
			OFFSET	0	12.1515	-2.16991
			CHANNELS 3  Xrotation Yrotation Zrotation
			JOINT Spine2
			{
				OFFSET	0	9.21125	0.987307
				CHANNELS 3  Xrotation Yrotation Zrotation
				JOINT Spine3
				{
					OFFSET	0	11.0231	3.27656
					CHANNELS 3  Xrotation Yrotation Zrotation
					JOINT Spine4
					{
						OFFSET	0	16.3177	-1.67083
						CHANNELS 3  Xrotation Yrotation Zrotation
						JOINT Neck
						{
							OFFSET	0	7.78996	-5.45731
							CHANNELS 3  Xrotation Yrotation Zrotation
							JOINT Head
							{
								OFFSET	0	9.35229	-2.79918
								CHANNELS 3  Xrotation Yrotation Zrotation
								End Site
								{
									OFFSET	0	19.5075	-0.943909
								}
							}
						}
					}
					JOINT LeftShoulder
					{
						OFFSET	-4.687	19.8329	-9.3523
						CHANNELS 3  Xrotation Yrotation Zrotation
						JOINT LeftArm
						{
							OFFSET	-10.2164	-2.79918	3.59122
							CHANNELS 3  Xrotation Yrotation Zrotation
							JOINT LeftForeArm
							{
								OFFSET	-30.9138	-1.41096	2.20659
								CHANNELS 3  Xrotation Yrotation Zrotation
								JOINT LeftHand
								{
									OFFSET	-25.9068	-1.7903	1.8492
									CHANNELS 3  Xrotation Yrotation Zrotation
									End Site
									{
										OFFSET	-9.45469	-0.653372	0.674821
									}
								}
							}
						}
					}
					JOINT RightShoulder
					{
						OFFSET	4.687	19.8329	-9.3523
						CHANNELS 3  Xrotation Yrotation Zrotation
						JOINT RightArm
						{
							OFFSET	10.2164	-2.79918	3.59122
							CHANNELS 3  Xrotation Yrotation Zrotation
							JOINT RightForeArm
							{
								OFFSET	30.9138	-1.41096	2.20659
								CHANNELS 3  Xrotation Yrotation Zrotation
								JOINT RightHand
								{
									OFFSET	25.9068	-1.7903	1.8492
									CHANNELS 3  Xrotation Yrotation Zrotation
									End Site
									{
										OFFSET	9.45469	-0.653372	0.674821
									}
								}
							}
						}
					}
				}
			}
		}
	}
	JOINT LeftUpLeg
	{
		OFFSET	-9.67573	-3.54864	-0.712453
		CHANNELS 3  Xrotation Yrotation Zrotation
		JOINT LeftLeg
		{
			OFFSET	-2.14499	-42.0303	-0.657025
			CHANNELS 3  Xrotation Yrotation Zrotation
			JOINT LeftFoot
			{
				OFFSET	-2.09953	-38.701	3.32829
				CHANNELS 3  Xrotation Yrotation Zrotation
				JOINT LeftToeBase
				{
					OFFSET	0	-4.7778	-12.6898
					CHANNELS 3  Xrotation Yrotation Zrotation
					End Site
					{
						OFFSET	0	-1.91111	-7.64447
					}
				}
			}
		}
	}
	JOINT RightUpLeg
	{
		OFFSET	9.67573	-3.54864	-0.712453
		CHANNELS 3  Xrotation Yrotation Zrotation
		JOINT RightLeg
		{
			OFFSET	2.14499	-42.0303	-0.657025
			CHANNELS 3  Xrotation Yrotation Zrotation
			JOINT RightFoot
			{
				OFFSET	2.09953	-38.701	3.32829
				CHANNELS 3  Xrotation Yrotation Zrotation
				JOINT RightToeBase
				{
					OFFSET	0	-4.7778	-12.6898
					CHANNELS 3  Xrotation Yrotation Zrotation
					End Site
					{
						OFFSET	0	-1.91111	-7.64447
					}
				}
			}
		}
	}
}
MOTION
Frames: 7
Frame Time: 0.020409
 0 -10.1591 2.86036 -0 0 -0 -0 0 -0 -0 0 -0 -0 0 -0 -0 0 -0 -0 0 -0 -0 0 -0 -0 0 -0 -0 0 -0 -0 0 -0 -0 0 -0 -0 0 -0 -0 0 -0 -0 0 -0 -0 0 -0 -0 0 -0 -0 0 -0 -0 0 -0 -0 0 -0 -0 0 -0 -0 0 -0 -0 0 -0 -0 0 -0 -0 0 -0
 96.4712 45.6373 79.3248 70.1613 173.902 -168.242 179.994 -179.715 178.858 14.2357 -0.570529 -1.90348 14.4793 -1.71159 -1.90424 10.3421 -0.285365 -1.14205 2.78056 -0.0184673 -0.380229 175.958 158.932 -179.95 177.868 142.363 -176.293 172.981 169.657 167.764 74.3506 -50.2812 60.2612 32.506 -18.2204 10.1808 -0 -33.6801 -52.2315 170.449 -162.967 -164.773 80.9765 35.2308 -57.6139 177.629 147.871 -177.447 -0 27.0264 45.3124 48.974 12.8145 -1.19407 169.202 -166.023 -178.122 54.7968 10.6431 7.08477 155.907 180 -180 51.5611 46.3221 -21.4563 167.814 152.234 -158.972 162.65 155.325 -126.363 143.515 180 -180
 96.3633 44.6419 78.3581 72.4162 177.266 -168.002 179.999 -179.965 178.423 13.7767 -0.0704815 -2.62808 14.2101 -0.211444 -2.62809 10.5052 -0.0352645 -1.57684 1.51428 -0.0138904 -0.525431 172.566 159.308 -179.451 176.675 142.489 -175.766 172.702 166.552 167.815 75.4428 -50.033 63.8508 32.2983 -18.5448 11.2614 -0 -34.8906 -53.1464 169.937 -162.833 -163.943 79.9925 35.5204 -58.8751 177.876 147.59 -178.163 -0 27.6858 45.0451 47.6618 17.5163 -6.03286 169.351 -169.231 -172.412 49.0611 30.555 13.6547 159.909 180 -180 55.6819 47.8694 -28.9717 163.796 150.793 -158.637 151.079 156.044 -116.538 146.512 180 -180
 96.6778 45.8581 79.4725 69.2696 173.349 -167.972 179.994 -179.684 178.943 14.2255 -0.631181 -1.7615 14.5429 -1.89354 -1.76236 10.5595 -0.315686 -1.05685 2.2545 -0.0138582 -0.352006 174.376 159.598 178.855 177.293 142.106 -176.401 173.18 169.954 168.074 73.7918 -50.1715 59.4443 31.5731 -20.1958 10.2263 -0 -36.3065 -53.1031 170.405 -161.462 -165.103 81.7666 35.0623 -58.0782 177.503 147.067 -176.91 -0 28.4357 44.622 50.2921 12.8359 -1.15186 168.726 -165.95 -178.311 54.6773 9.37856 7.68878 154.983 180 -180 52.4426 46.7522 -20.616 168.768 152.281 -160.61 164.996 156.853 -129.189 142.945 180 -180
 96.7334 45.3258 79.1101 69.9417 174.831 -168.266 179.997 -179.814 178.956 14.0973 -0.371257 -1.73959 14.467 -1.11377 -1.73988 10.579 -0.185683 -1.04374 1.95738 -0.0118834 -0.347707 173.592 160.021 178.251 177.023 142.203 -176.483 172.939 169.025 167.795 73.7178 -50.3334 59.7143 31.237 -20.6746 10.6819 -0 -37.5694 -53.8257 170.19 -160.752 -164.946 81.4516 34.8179 -58.3344 177.569 146.957 -177.785 -0 28.8981 44.3548 49.5666 15.0337 -2.45868 169.112 -167.062 -177.437 53.3461 13.7887 9.79789 155.949 180 -180 52.8814 47.1696 -22.3169 168.459 150.831 -160.359 159.614 156.029 -124.446 143.646 180 -180
 96.2318 44.8585 78.0024 71.4704 175.254 -167.552 179.996 -179.848 178.581 13.7742 -0.304447 -2.36534 14.3192 -0.91334 -2.3656 10.8978 -0.152306 -1.41919 0.604759 -0.00499319 -0.473034 169.776 159.858 -179.563 175.702 142.722 -175.486 172.868 167.408 167.95 73.5146 -50.0478 63.2522 31.1704 -20.8182 11.2492 -0 -39.0534 -55.3151 169.815 -161.393 -164.149 78.9888 35.0455 -58.3233 177.668 146.783 -178.008 -0 29.3083 44.3145 49.7303 21.6814 -7.06073 167.969 -172.697 -167.738 35.5662 44.7838 25.4776 159.823 180 -180 55.4566 48.5104 -27.178 164.183 150.943 -159.926 150.099 157.952 -116.365 146.788 180 -180
 96.0013 45.132 78.1082 71.1338 175.483 -167.263 179.997 -179.874 178.517 13.7309 -0.252462 -2.47175 14.3916 -0.757387 -2.47194 11.2054 -0.126306 -1.48304 179.803 179.998 179.506 167.39 159.801 -178.668 174.849 142.653 -174.937 172.789 167.551 167.787 73.5061 -50.05 63.3271 30.85 -21.147 11.4209 -0 -40.1379 -56.1692 169.974 -161.785 -164.299 77.7557 34.7543 -57.2472 177.58 146.448 -178.019 -0 29.5894 44.1322 50.5918 23.2698 -7.69147 167.883 -173.259 -167.326 32.6953 45.0246 27.7302 159.67 180 -180 55.7087 48.3643 -26.8542 164.793 150.414 -160.216 149.971 157.916 -116.703 146.786 180 -180
